#!OML:ASF F:\twosubjects\two\Thursday\Session 1\justin.ASF
:FULLY-SPECIFIED
:DEGREES
230
root 9.83864 17.994 1.31258 -170.022 16.209 179.059
lowerback 7.21997 0.946247 -0.405015
upperback 1.88101 1.7835 6.08093
thorax -2.30985 1.06777 6.40488
lowerneck -19.6425 -3.86253 -8.60088
upperneck 25.358 -4.43905 8.62378
head 12.0003 -1.4517 4.0478
rclavicle 2.06736e-014 -8.74653e-014
rhumerus 54.8755 12.1077 -66.0837
rradius 42.7547
rwrist -9.2941
rhand -49.3876 13.2007
rfingers 7.12502
rthumb -22.0012 -15.568
lclavicle 2.06736e-014 -8.74653e-014
lhumerus 43.7253 -4.58971 77.1367
lradius 46.9177
lwrist 9.74473
lhand -33.1011 51.8072
lfingers 7.12502
lthumb -6.31184 441.693
rfemur -28.4794 -6.68133 13.6703
rtibia 38.5731
rfoot -17.8628 -9.15267
rtoes -6.86711
lfemur -9.36554 2.39808 -17.4743
ltibia 21.8393
lfoot -14.4437 7.64908
ltoes -19.4542
231
root 9.89596 17.994 1.30063 -170.111 16.2461 179.288
lowerback 7.12077 0.266029 -0.546288
upperback 1.81391 0.934164 6.69664
thorax -2.23718 0.666779 7.23161
lowerneck -19.7457 -3.23084 -9.75378
upperneck 25.7625 -3.05971 8.25814
head 12.0471 -1.00248 4.34304
rclavicle 3.10104e-014 9.22361e-014
rhumerus 55.49 14.4626 -66.1322
rradius 43.13
rwrist -9.20908
rhand -47.5238 11.5383
rfingers 7.12502
rthumb -20.2107 -17.4303
lclavicle 3.10104e-014 9.22361e-014
lhumerus 42.4208 -2.20116 77.2013
lradius 46.7698
lwrist 9.70531
lhand -32.9318 51.4135
lfingers 7.12502
lthumb -6.14833 441.304
rfemur -28.2033 -6.4989 14.0388
rtibia 38.488
rfoot -18.1307 -9.09743
rtoes -6.35733
lfemur -9.40176 2.35186 -17.032
ltibia 22.48
lfoot -14.3339 7.86532
ltoes -19.932
232
root 9.94978 18.0037 1.28057 -170.269 16.3081 179.585
lowerback 7.01764 0.952993 0.470868
upperback 1.79246 1.84985 5.97077
thorax -2.26831 1.09662 5.77881
lowerneck -19.7024 -3.70003 -8.09095
upperneck 25.5827 -4.16539 7.90363
head 12.0396 -1.36725 3.73513
rclavicle -4.6118e-014 4.77083e-015
rhumerus 54.305 12.3814 -67.2784
rradius 43.2966
rwrist -8.42451
rhand -46.5238 10.5454
rfingers 7.12502
rthumb -19.2494 -18.5219
lclavicle -4.6118e-014 4.77083e-015
lhumerus 43.0013 -4.43085 76.4237
lradius 46.3509
lwrist 10.1727
lhand -32.5422 50.7391
lfingers 7.12502
lthumb -5.77227 440.64
rfemur -27.7534 -6.30567 14.4754
rtibia 38.373
rfoot -18.4846 -9.08258
rtoes -6.34929
lfemur -9.38203 2.44785 -16.5038
ltibia 23.2016
lfoot -14.4959 7.54448
ltoes -18.4285
233
root 10.0067 18.0077 1.26914 -170.303 16.415 179.817
lowerback 6.95162 1.21372 0.967175
upperback 1.68455 2.20862 5.71408
thorax -2.35102 1.26557 5.18874
lowerneck -19.9146 -3.74546 -7.48094
upperneck 25.8562 -4.35669 7.72929
head 12.1879 -1.39874 3.54281
rclavicle -2.5842e-014 -6.67916e-014
rhumerus 53.604 11.8116 -68.0151
rradius 43.5792
rwrist -7.63443
rhand -45.2004 10.0583
rfingers 7.12502
rthumb -17.9765 -19.131
lclavicle -2.5842e-014 -6.67916e-014
lhumerus 42.9405 -5.04538 76.046
lradius 45.8647
lwrist 9.88728
lhand -32.5956 50.8727
lfingers 7.12502
lthumb -5.82383 440.773
rfemur -27.4741 -6.1586 14.8716
rtibia 38.2451
rfoot -18.6219 -8.9542
rtoes -6.40615
lfemur -9.58918 2.49937 -16.0462
ltibia 24.0404
lfoot -14.6007 7.39352
ltoes -18.0696
234
root 10.0631 18.0087 1.27853 -170.273 16.3555 180.338
lowerback 7.13103 1.18629 1.61053
upperback 1.59289 2.24563 5.7344
thorax -2.52751 1.2868 4.83517
lowerneck -20.1782 -3.62681 -7.27156
upperneck 26.1175 -4.16931 7.47323
head 12.3145 -1.31948 3.44792
rclavicle 1.19271e-015 2.06736e-014
rhumerus 53.2611 11.8045 -68.8733
rradius 43.9792
rwrist -6.47157
rhand -42.8379 8.96236
rfingers 7.12502
rthumb -15.7023 -20.4206
lclavicle 1.19271e-015 2.06736e-014
lhumerus 42.6876 -4.7996 75.9139
lradius 45.4417
lwrist 9.50036
lhand -32.7397 51.208
lfingers 7.12502
lthumb -5.96291 441.104
rfemur -27.2519 -5.84436 15.6041
rtibia 38.1627
rfoot -18.8234 -9.06979
rtoes -6.15506
lfemur -9.88349 2.50656 -15.2071
ltibia 24.8397
lfoot -14.363 7.23993
ltoes -19.1912
235
root 10.1194 18.0131 1.28798 -170.579 16.2619 180.763
lowerback 7.51836 1.29595 2.29543
upperback 1.73399 2.45669 5.54301
thorax -2.5774 1.38796 4.21674
lowerneck -20.4996 -3.66238 -6.53685
upperneck 26.0049 -4.3481 7.04892
head 12.32 -1.38353 3.12245
rclavicle -2.5842e-014 -6.04305e-014
rhumerus 52.9913 11.163 -69.6389
rradius 44.5208
rwrist -6.13753
rhand -40.9207 8.31596
rfingers 7.12502
rthumb -13.8552 -21.2026
lclavicle -2.5842e-014 -6.04305e-014
lhumerus 42.9672 -5.0551 75.5142
lradius 45.0685
lwrist 9.59725
lhand -32.6436 50.8817
lfingers 7.12502
lthumb -5.87014 440.78
rfemur -26.7212 -5.56754 16.2318
rtibia 38.1515
rfoot -18.9989 -9.32422
rtoes -6.70634
lfemur -9.86078 2.34336 -14.4292
ltibia 25.6126
lfoot -14.1273 6.93862
ltoes -19.493
236
root 10.1714 18.0124 1.2754 -171.069 16.3292 180.306
lowerback 7.49283 1.49268 2.08521
upperback 1.95856 2.64648 5.15766
thorax -2.33117 1.46909 3.91647
lowerneck -20.9748 -3.6699 -5.77264
upperneck 25.9862 -4.48326 6.57456
head 12.3854 -1.42935 2.78274
rclavicle -2.90226e-014 -4.77083e-014
rhumerus 52.7759 10.4397 -70.2083
rradius 45.0329
rwrist -6.47634
rhand -39.2518 8.5164
rfingers 7.12502
rthumb -12.2464 -21.105
lclavicle -2.90226e-014 -4.77083e-014
lhumerus 43.3203 -5.41458 74.9925
lradius 44.5461
lwrist 9.51565
lhand -32.5993 50.1439
lfingers 7.12502
lthumb -5.8274 440.044
rfemur -26.234 -5.91919 15.9011
rtibia 38.1777
rfoot -18.9707 -9.00835
rtoes -7.71064
lfemur -9.84773 2.10045 -14.7148
ltibia 26.4895
lfoot -14.0003 6.84408
ltoes -19.8987
237
root 10.2223 18.0145 1.26724 -171.394 16.4065 179.812
lowerback 7.47068 1.53706 1.7362
upperback 1.93695 2.64119 4.90937
thorax -2.34349 1.4548 3.85453
lowerneck -21.0661 -3.51798 -5.61724
upperneck 26.1371 -4.24589 6.34078
head 12.4349 -1.335 2.71053
rclavicle 2.38542e-015 -7.15625e-014
rhumerus 52.4352 10.4707 -70.6834
rradius 45.3069
rwrist -6.61944
rhand -38.3411 9.17441
rfingers 7.12502
rthumb -11.3683 -20.4974
lclavicle 2.38542e-015 -7.15625e-014
lhumerus 43.0936 -5.24674 74.7599
lradius 44.0996
lwrist 9.37101
lhand -31.8793 48.8916
lfingers 7.12502
lthumb -5.13214 438.809
rfemur -25.9232 -6.16367 15.5199
rtibia 38.2019
rfoot -19.1578 -8.68017
rtoes -7.17021
lfemur -10.1324 2.09711 -15.0422
ltibia 27.4994
lfoot -13.9471 6.49505
ltoes -19.6862
238
root 10.2859 18.0219 1.27293 -171.388 16.7196 179.999
lowerback 7.69632 1.8221 1.89944
upperback 1.67172 3.02651 4.71084
thorax -2.74623 1.63525 3.50463
lowerneck -20.7772 -3.49639 -5.39968
upperneck 26.1832 -4.28124 6.3521
head 12.3924 -1.31974 2.67607
rclavicle 4.37326e-015 -5.08889e-014
rhumerus 51.573 10.2638 -71.0195
rradius 45.7041
rwrist -7.02779
rhand -38.4275 9.75661
rfingers 7.12502
rthumb -11.4516 -19.9106
lclavicle 4.37326e-015 -5.08889e-014
lhumerus 42.7831 -5.53126 74.7204
lradius 43.7572
lwrist 9.29293
lhand -30.5135 47.4912
lfingers 7.12502
lthumb -3.81338 437.437
rfemur -25.817 -5.52227 15.8783
rtibia 38.2179
rfoot -19.5107 -8.94471
rtoes -6.61798
lfemur -10.6329 2.65576 -14.5737
ltibia 28.64
lfoot -13.6624 5.86385
ltoes -19.5295
239
root 10.3545 18.0273 1.27308 -171.16 17.2603 180.433
lowerback 7.50558 1.91747 1.8168
upperback 1.57449 3.16448 4.96548
thorax -2.76684 1.71192 3.80807
lowerneck -20.6332 -3.28571 -5.7865
upperneck 26.1763 -3.86762 6.41087
head 12.3403 -1.1712 2.83447
rclavicle -5.96354e-015 -5.88403e-014
rhumerus 49.9143 13.3187 -63.3787
rradius 47.8038
rwrist -14.9756
rhand -40.826 10.3842
rfingers 7.12502
rthumb -13.764 -19.1405
lclavicle -5.96354e-015 -5.88403e-014
lhumerus 42.3199 -4.76447 74.9042
lradius 43.3786
lwrist 8.77583
lhand -29.5232 46.903
lfingers 7.12502
lthumb -2.857 436.864
rfemur -25.895 -4.75213 16.5041
rtibia 38.1874
rfoot -19.701 -9.11446
rtoes -6.1385
lfemur -11.2925 3.49841 -13.8827
ltibia 29.9549
lfoot -13.1192 5.46254
ltoes -20.7391
240
root 10.4011 18.0352 1.26859 -171.216 17.2346 180.245
lowerback 7.22312 2.09278 1.92144
upperback 1.76516 3.35666 4.67641
thorax -2.3987 1.79836 3.44334
lowerneck -21.4467 -3.42859 -5.77633
upperneck 26.326 -4.13779 6.64904
head 12.5916 -1.25074 2.88093
rclavicle 3.53837e-014 7.79236e-014
rhumerus 49.2507 12.6389 -63.775
rradius 49.7678
rwrist -15.6159
rhand -40.58 10.0311
rfingers 7.12502
rthumb -13.5268 -19.5096
lclavicle 3.53837e-014 7.79236e-014
lhumerus 42.8413 -5.07081 74.484
lradius 43.0616
lwrist 8.74436
lhand -29.2266 47.2652
lfingers 7.12502
lthumb -2.57057 437.229
rfemur -25.7554 -4.88241 16.4721
rtibia 38.0549
rfoot -19.7684 -8.97513
rtoes -5.59366
lfemur -12.0522 3.55897 -13.8845
ltibia 31.401
lfoot -12.6096 5.31882
ltoes -22.172
